<svg width="251" height="251" viewBox="0 0 251 251" fill="none" xmlns="http://www.w3.org/2000/svg">
<path fill-rule="evenodd" clip-rule="evenodd" d="M125.132 250.264C194.237 250.264 250.264 194.237 250.264 125.132C250.264 56.027 194.237 0 125.132 0C56.027 0 0 56.027 0 125.132C0 194.237 56.027 250.264 125.132 250.264ZM125.132 232.894C184.453 232.894 232.894 184.453 232.894 125.132C232.894 65.811 184.453 17.37 125.132 17.37C65.811 17.37 17.37 65.811 17.37 125.132C17.37 184.453 65.811 232.894 125.132 232.894Z" fill="white"/>
<path d="M187.729 199.199H62.5355V173.91H187.729V199.199Z" fill="white"/>
<path d="M187.729 157.653H62.5355V132.363H187.729V157.653Z" fill="white"/>
<path d="M187.729 116.106H62.5355V90.8162H187.729V116.106Z" fill="white"/>
<path d="M187.729 74.5587H62.5355V49.269H187.729V74.5587Z" fill="white"/>
</svg>
